# xmcd
#
# Track frame offsets:
#	150
#	20440
#	36380
#	55512
#	69855
#	83992
#	99315
#	113890
#	126140
#	138860
#
# Disc length: 2088 seconds
#
# Revision: 0
# Processed by: cddbd v1.5.2PL0 Copyright (c) Steve Scherf et al.
# Submitted via: EasyCDDAExtractor 10.2.0.1
#
DISCID=7a08260a
DTITLE=Jolena Foster - Jesus Take My Hand
DYEAR=1900
DGENRE=Gospel
TTITLE0=Paul's Ministry
TTITLE1=Precious Memories
TTITLE2=Old Crossroads
TTITLE3=Peace In The Valley
TTITLE4=A Special Place To Go
TTITLE5=Amazing Grace
TTITLE6=Don't Neglect The Rose
TTITLE7=Give Me Your Hand
TTITLE8=Mother Rejoiced With The Angels
TTITLE9=Jesus Hold My Hand
EXTD=
EXTT0=
EXTT1=
EXTT2=
EXTT3=
EXTT4=
EXTT5=
EXTT6=
EXTT7=
EXTT8=
EXTT9=
PLAYORDER=
